<!-- icon666.com - MILLIONS vector ICONS FREE --><svg id="Layer_1" viewBox="0 0 512 512" xmlns="http://www.w3.org/2000/svg" data-name="Layer 1"><path d="m256 0c-141.159 0-256 114.841-256 256s114.841 256 256 256 256-114.841 256-256-114.841-256-256-256zm114.789 385.569a16 16 0 0 1 -22.628 0l-92.161-92.159-92.161 92.159a16 16 0 1 1 -22.627-22.627l103.475-103.472a16 16 0 0 1 22.626 0l103.475 103.472a16 16 0 0 1 .001 22.627zm0-133.038a16 16 0 0 1 -22.628 0l-92.161-92.159-92.161 92.159a16 16 0 1 1 -22.627-22.631l103.475-103.468a16 16 0 0 1 22.626 0l103.475 103.468a16 16 0 0 1 .001 22.631z" fill="#000000" style="fill: rgb(52, 100, 33);"></path></svg>